<?xml version="1.0" encoding="UTF-8"?>
<svg width="800" height="600" viewBox="0 0 800 600" fill="none" xmlns="http://www.w3.org/2000/svg">
    <!-- Background Grid -->
    <path d="M0 0h800v600H0z" fill="#326CE5" fill-opacity=".1"/>
    
    <!-- Main Kubernetes Wheel -->
    <g transform="translate(400 300)">
        <!-- Outer Circle -->
        <circle cx="0" cy="0" r="150" stroke="#326CE5" stroke-width="4" fill="none"/>
        
        <!-- Inner Circle -->
        <circle cx="0" cy="0" r="50" fill="#326CE5"/>
        
        <!-- Spokes -->
        <g stroke="#326CE5" stroke-width="6">
            <line x1="0" y1="-150" x2="0" y2="-50" transform="rotate(0)"/>
            <line x1="0" y1="-150" x2="0" y2="-50" transform="rotate(45)"/>
            <line x1="0" y1="-150" x2="0" y2="-50" transform="rotate(90)"/>
            <line x1="0" y1="-150" x2="0" y2="-50" transform="rotate(135)"/>
            <line x1="0" y1="-150" x2="0" y2="-50" transform="rotate(180)"/>
            <line x1="0" y1="-150" x2="0" y2="-50" transform="rotate(225)"/>
            <line x1="0" y1="-150" x2="0" y2="-50" transform="rotate(270)"/>
            <line x1="0" y1="-150" x2="0" y2="-50" transform="rotate(315)"/>
        </g>
        
        <!-- Pods -->
        <g fill="#326CE5">
            <circle cx="0" cy="-170" r="15" transform="rotate(0)"/>
            <circle cx="0" cy="-170" r="15" transform="rotate(45)"/>
            <circle cx="0" cy="-170" r="15" transform="rotate(90)"/>
            <circle cx="0" cy="-170" r="15" transform="rotate(135)"/>
            <circle cx="0" cy="-170" r="15" transform="rotate(180)"/>
            <circle cx="0" cy="-170" r="15" transform="rotate(225)"/>
            <circle cx="0" cy="-170" r="15" transform="rotate(270)"/>
            <circle cx="0" cy="-170" r="15" transform="rotate(315)"/>
        </g>
    </g>
    
    <!-- Small Kubernetes Symbols -->
    <g transform="translate(200 150) scale(0.5)">
        <circle cx="0" cy="0" r="40" stroke="#326CE5" stroke-width="4" fill="none"/>
        <circle cx="0" cy="0" r="15" fill="#326CE5"/>
    </g>
    
    <g transform="translate(600 150) scale(0.5)">
        <circle cx="0" cy="0" r="40" stroke="#326CE5" stroke-width="4" fill="none"/>
        <circle cx="0" cy="0" r="15" fill="#326CE5"/>
    </g>
    
    <g transform="translate(200 450) scale(0.5)">
        <circle cx="0" cy="0" r="40" stroke="#326CE5" stroke-width="4" fill="none"/>
        <circle cx="0" cy="0" r="15" fill="#326CE5"/>
    </g>
    
    <g transform="translate(600 450) scale(0.5)">
        <circle cx="0" cy="0" r="40" stroke="#326CE5" stroke-width="4" fill="none"/>
        <circle cx="0" cy="0" r="15" fill="#326CE5"/>
    </g>
    
    <!-- Connecting Lines -->
    <g stroke="#326CE5" stroke-width="3" stroke-dasharray="8 8">
        <line x1="200" y1="150" x2="400" y2="300"/>
        <line x1="600" y1="150" x2="400" y2="300"/>
        <line x1="200" y1="450" x2="400" y2="300"/>
        <line x1="600" y1="450" x2="400" y2="300"/>
    </g>
    
    <!-- Decorative Elements -->
    <g stroke="#326CE5" stroke-width="2" fill="none">
        <path d="M50 100 Q 100 50, 150 100 T 250 100" opacity="0.5"/>
        <path d="M550 100 Q 600 50, 650 100 T 750 100" opacity="0.5"/>
        <path d="M50 500 Q 100 450, 150 500 T 250 500" opacity="0.5"/>
        <path d="M550 500 Q 600 450, 650 500 T 750 500" opacity="0.5"/>
    </g>
</svg>